<?xml version="1.0" encoding="UTF-8"?>
<svg xmlns="http://www.w3.org/2000/svg" viewBox="0 0 200 320" fill="none">
  <title>female level 11</title>
  
  <path d="M96 88 Q100 140 98 185" fill="none" stroke="#C23B2E" stroke-width="7" stroke-linecap="round"/>
  

    <path d="M100 70 Q37 130 55 250 Q100 210 145 250 Q163 130 100 70"
      fill="#4A3A5C" stroke="#1a1520" stroke-width="3.5" opacity="0.92"/>

    <g opacity="0.35" transform="translate(-28,8)">
      <path d="M100 90 L85 170 L115 170 Z" fill="#1a1520"/>
      <circle cx="100" cy="75" r="12" fill="#1a1520"/>
    </g>

  <ellipse cx="100" cy="298" rx="44" ry="7" fill="#000" opacity="0.18"/>
  <rect x="80" y="178" width="13" height="56" rx="6" fill="#3D2B4A" stroke="#1a1520" stroke-width="3"/>
  <rect x="107" y="178" width="13" height="56" rx="6" fill="#3D2B4A" stroke="#1a1520" stroke-width="3"/>
  <ellipse cx="87" cy="238" rx="12" ry="8" fill="#1A1520" stroke="#1a1520" stroke-width="2.5"/>
  <ellipse cx="113" cy="238" rx="12" ry="8" fill="#1A1520" stroke="#1a1520" stroke-width="2.5"/>
  <!-- hip flare -->
  <path d="M84 155 Q100 168 116 155 L122 178 L78 178 Z" fill="#3D2B4A" stroke="#1a1520" stroke-width="2.5"/>
  <!-- torso: shoulders → waist → hips -->
  <path d="M78 98 L122 98 L116 118 L104 140 L112 160 L88 160 L96 140 L84 118 Z" fill="#6B4A7A" stroke="#1a1520" stroke-width="3.5"/>
  <path d="M86 108 Q100 120 114 108" fill="#6B4A7A" stroke="#1a1520" stroke-width="2"/>
  <path d="M78 98 Q100 92 122 98" fill="none" stroke="#6B4423" stroke-width="4" stroke-linecap="round"/>
  <ellipse cx="100" cy="158" rx="16" ry="5" fill="#D4AF37" stroke="#1a1520" stroke-width="2"/>
  <rect x="58" y="102" width="14" height="42" rx="7" fill="#F0C8A0" stroke="#1a1520" stroke-width="3"/>
  <rect x="128" y="102" width="14" height="42" rx="7" fill="#F0C8A0" stroke="#1a1520" stroke-width="3"/>
  

    <ellipse cx="91" cy="242" rx="13" ry="7" fill="#1A1520" stroke="#E8A0D0" stroke-width="2"/>
    <ellipse cx="109" cy="242" rx="13" ry="7" fill="#1A1520" stroke="#E8A0D0" stroke-width="2"/>

    <g transform="translate(150,120)">
      <rect x="0" y="10" width="28" height="8" rx="2" fill="#5C3A1E" stroke="#1a1520" stroke-width="2"/>
      <path d="M28 8 L48 14 L28 20 Z" fill="#C0C8D4" stroke="#1a1520" stroke-width="2"/>
    </g>
<circle cx="155" cy="120" r="10" fill="#E8A0D0" opacity="0.4"/>
<circle cx="100" cy="150" r="50" fill="#7C4DB2" opacity="0.08"/>

    <circle cx="45" cy="160" r="8" fill="none" stroke="#E8A0D0" stroke-width="2"/>
    <circle cx="45" cy="160" r="3" fill="#E8A0D0"/>

  <path d="M78 62 Q60 78 58 110 Q56 140 70 155 Q78 148 80 120 Q82 90 78 62" fill="#C23B2E" stroke="#1a1520" stroke-width="2"/>
  <path d="M122 62 Q140 78 142 110 Q144 140 130 155 Q122 148 120 120 Q118 90 122 62" fill="#C23B2E" stroke="#1a1520" stroke-width="2"/>
  

  <circle cx="100" cy="66" r="21" fill="#F0C8A0" stroke="#1a1520" stroke-width="3.5"/>
  <ellipse cx="93" cy="64" rx="5" ry="6" fill="#fff" stroke="#1a1520" stroke-width="2"/>
  <ellipse cx="107" cy="64" rx="5" ry="6" fill="#fff" stroke="#1a1520" stroke-width="2"/>
  <circle cx="94" cy="65" r="2.3" fill="#1a1520"/>
  <circle cx="108" cy="65" r="2.3" fill="#1a1520"/>
  <path d="M88 60 Q92 56 96 60" stroke="#1a1520" stroke-width="1.5" fill="none"/>
  <path d="M104 60 Q108 56 112 60" stroke="#1a1520" stroke-width="1.5" fill="none"/>
  <path d="M92 76 Q100 82 108 76" stroke="#1a1520" stroke-width="2.5" fill="none" stroke-linecap="round"/>
  

  <path d="M84 44 Q100 34 116 44 Q110 48 100 46 Q90 48 84 44" fill="#C23B2E" stroke="#1a1520" stroke-width="2"/>
  <rect x="82" y="44" width="36" height="5" rx="2.5" fill="#7C4DB2" stroke="#1a1520" stroke-width="1.8"/>
  <circle cx="100" cy="46.5" r="2.8" fill="#E8A0D0" stroke="#1a1520" stroke-width="1.4"/>
  

    <path d="M72 40 Q100 18 128 40 L124 54 Q100 48 76 54 Z" fill="#4A3A5C" stroke="#1a1520" stroke-width="3"/>
    <path d="M76 78 Q70 110 78 150" fill="none" stroke="#4A3A5C" stroke-width="10" stroke-linecap="round" opacity="0.7"/>
    <path d="M124 78 Q130 110 122 150" fill="none" stroke="#4A3A5C" stroke-width="10" stroke-linecap="round" opacity="0.7"/>

    <rect x="86" y="62" width="28" height="10" rx="3" fill="#1a1520" opacity="0.65"/>
    <circle cx="93" cy="67" r="1.8" fill="#E8A0D0"/><circle cx="107" cy="67" r="1.8" fill="#E8A0D0"/>
  
  <rect x="58" y="300" width="84" height="16" rx="6" fill="#7C4DB2" opacity="0.9"/>
  <text x="100" y="312" text-anchor="middle" font-family="Verdana, sans-serif" font-size="11" font-weight="700" fill="#FFF8E7">Lv 11 ♀</text>
</svg>
