<?xml version="1.0" encoding="UTF-8"?>
<svg xmlns="http://www.w3.org/2000/svg" viewBox="0 0 200 320" fill="none">
  <title>male level 9</title>
  

    <ellipse cx="100" cy="298" rx="48" ry="7" fill="#000" opacity="0.18"/>
    <path d="M72 100 L52 250 L148 250 L128 100 Z" fill="#1E3A6E" stroke="#1a1520" stroke-width="3.5"/>
    <circle cx="85" cy="140" r="2" fill="#F0D78C"/><circle cx="110" cy="160" r="1.5" fill="#F0D78C"/>
    <circle cx="95" cy="190" r="2" fill="#F0D78C"/><circle cx="120" cy="130" r="1.5" fill="#F0D78C"/>
    <rect x="88" y="155" width="24" height="12" rx="3" fill="#F0D78C" stroke="#1a1520" stroke-width="2"/>
    <rect x="58" y="112" width="18" height="40" rx="8" fill="#F0C8A0" stroke="#1a1520" stroke-width="3"/>
    <rect x="123" y="112" width="18" height="40" rx="8" fill="#F0C8A0" stroke="#1a1520" stroke-width="3"/>
<path d="M82 58 Q100 48 118 58" fill="#3D2B1F" stroke="#1a1520" stroke-width="2" opacity="0.85"/>

  <circle cx="100" cy="72" r="22" fill="#F0C8A0" stroke="#1a1520" stroke-width="3.5"/>
  <ellipse cx="93" cy="70" rx="5" ry="6" fill="#fff" stroke="#1a1520" stroke-width="2"/>
  <ellipse cx="107" cy="70" rx="5" ry="6" fill="#fff" stroke="#1a1520" stroke-width="2"/>
  <circle cx="94" cy="71" r="2.3" fill="#1a1520"/>
  <circle cx="108" cy="71" r="2.3" fill="#1a1520"/>
  
  <path d="M92 82 Q100 88 108 82" stroke="#1a1520" stroke-width="2.5" fill="none" stroke-linecap="round"/>
  


    <circle cx="92" cy="70" r="6" fill="none" stroke="#1a1520" stroke-width="2"/>
    <circle cx="108" cy="70" r="6" fill="none" stroke="#1a1520" stroke-width="2"/>
    <line x1="98" y1="70" x2="102" y2="70" stroke="#1a1520" stroke-width="2"/>

    <g transform="translate(48,145)">
      <rect x="0" y="0" width="22" height="28" rx="2" fill="#5C3A1E" stroke="#1a1520" stroke-width="2.5"/>
      <rect x="3" y="4" width="16" height="20" fill="#E8D5A3"/>
      <path d="M6 10 H16 M6 15 H14" stroke="#3B6FB2" stroke-width="1.5"/>
    </g>

    <circle cx="100" cy="120" r="8" fill="#F0D78C" stroke="#1a1520" stroke-width="2"/>
    <circle cx="100" cy="120" r="3" fill="#3B6FB2"/>
    <line x1="100" y1="100" x2="100" y2="112" stroke="#1a1520" stroke-width="2"/>

    <rect x="158" y="90" width="6" height="130" rx="2" fill="#8B6914" stroke="#1a1520" stroke-width="2.5"/>
    <circle cx="161" cy="88" r="8" fill="#A8D4FF" stroke="#1a1520" stroke-width="2.5"/>

    <circle cx="50" cy="155" r="12" fill="#A8D4FF" stroke="#1a1520" stroke-width="2.5" opacity="0.9"/>
    <circle cx="50" cy="155" r="18" fill="#A8D4FF" opacity="0.25"/>
<circle cx="40" cy="100" r="10" fill="#F5A623" opacity="0.7"/>
<circle cx="160" cy="55" r="6" fill="#F0D78C" opacity="0.8"/>

    <circle cx="70" cy="200" r="4" fill="#F0D78C" opacity="0.6"/>
    <circle cx="130" cy="210" r="4" fill="#F0D78C" opacity="0.6"/>

    <path d="M80 50 L100 8 L120 50 Z" fill="#3B6FB2" stroke="#1a1520" stroke-width="3.5"/>
    <ellipse cx="100" cy="52" rx="24" ry="7" fill="#3B6FB2" stroke="#1a1520" stroke-width="3"/>
    <ellipse cx="100" cy="52" rx="16" ry="3.5" fill="#F0D78C" opacity="0.85"/>
  
  <rect x="58" y="300" width="84" height="16" rx="6" fill="#3B6FB2" opacity="0.9"/>
  <text x="100" y="312" text-anchor="middle" font-family="Verdana, sans-serif" font-size="11" font-weight="700" fill="#FFF8E7">Lv 9 ♂</text>
</svg>
