<?xml version="1.0" encoding="UTF-8"?>
<svg xmlns="http://www.w3.org/2000/svg" viewBox="0 0 200 320" fill="none">
  <title>mago male lv 3</title>
  
  <defs>
    <radialGradient id="bg" cx="50%" cy="38%" r="55%">
      <stop offset="0%" stop-color="#FFF8E7" stop-opacity="0.95"/>
      <stop offset="55%" stop-color="#F5E6C8" stop-opacity="0.55"/>
      <stop offset="100%" stop-color="#5B8DEF" stop-opacity="0.12"/>
    </radialGradient>
    <linearGradient id="skinG" x1="0" y1="0" x2="0" y2="1">
      <stop offset="0%" stop-color="#FFE4CC"/>
      <stop offset="55%" stop-color="#F5C9A8"/>
      <stop offset="100%" stop-color="#E8A878"/>
    </linearGradient>
    <linearGradient id="shine" x1="0" y1="0" x2="1" y2="1">
      <stop offset="0%" stop-color="#fff" stop-opacity="0.45"/>
      <stop offset="100%" stop-color="#fff" stop-opacity="0"/>
    </linearGradient>
  </defs>
  <ellipse cx="100" cy="168" rx="78" ry="118" fill="url(#bg)"/>

  

  <ellipse cx="100" cy="292" rx="40" ry="8" fill="#3D2A1F" opacity="0.12"/>
  <!-- legs -->
  <path d="M82 176 Q84 230 86 248 L96 248 Q94 200 94 176 Z" fill="#6B7A8F" stroke="#3D2A1F" stroke-width="2.8"/>
  <path d="M106 176 Q106 200 104 248 L114 248 Q116 230 118 176 Z" fill="#6B7A8F" stroke="#3D2A1F" stroke-width="2.8"/>
  <ellipse cx="90" cy="250" rx="13" ry="8" fill="#5C3A28" stroke="#3D2A1F" stroke-width="2.4"/>
  <ellipse cx="110" cy="250" rx="13" ry="8" fill="#5C3A28" stroke="#3D2A1F" stroke-width="2.4"/>
  <!-- torso -->
  <path d="M72 100 Q100 94 128 100 L124 178 Q100 186 76 178 Z" fill="#8AA8C4" stroke="#3D2A1F" stroke-width="3"/>
  <path d="M80 108 Q100 102 120 108 L118 140 Q100 136 82 140 Z" fill="url(#shine)"/>
  <path d="M76 150 Q100 162 124 150" fill="none" stroke="#6A88A4" stroke-width="3" opacity="0.35"/>
  <!-- arms -->
  <path d="M72 108 Q52 118 50 152 Q48 168 58 172 Q66 168 68 152 Q70 128 76 116 Z" fill="url(#skinG)" stroke="#3D2A1F" stroke-width="2.6"/>
  <path d="M128 108 Q148 118 150 152 Q152 168 142 172 Q134 168 132 152 Q130 128 124 116 Z" fill="url(#skinG)" stroke="#3D2A1F" stroke-width="2.6"/>
  <ellipse cx="100" cy="102" rx="22" ry="5" fill="#F0D78C" opacity="0.55"/>
  

  <path d="M78 60 Q100 42 122 60 Q116 74 100 72 Q84 74 78 60 Z" fill="#4A3428" stroke="#3D2A1F" stroke-width="2" opacity="0.92"/>

  <circle cx="100" cy="70" r="24" fill="url(#skinG)" stroke="#3D2A1F" stroke-width="3"/>
  <ellipse cx="90" cy="74" rx="7" ry="4" fill="#F4A08A" opacity="0.45"/>
  <ellipse cx="110" cy="74" rx="7" ry="4" fill="#F4A08A" opacity="0.45"/>
  <!-- eyes -->
  <ellipse cx="91" cy="68" rx="6.5" ry="7.5" fill="#fff" stroke="#3D2A1F" stroke-width="2"/>
  <ellipse cx="109" cy="68" rx="6.5" ry="7.5" fill="#fff" stroke="#3D2A1F" stroke-width="2"/>
  <circle cx="92.5" cy="69" r="3" fill="#2A4A6E"/>
  <circle cx="110.5" cy="69" r="3" fill="#2A4A6E"/>
  <circle cx="93.5" cy="67.5" r="1.2" fill="#fff"/>
  <circle cx="111.5" cy="67.5" r="1.2" fill="#fff"/>
  <path d="M84 61 Q91 58 97 61" stroke="#3D2A1F" stroke-width="1.8" fill="none" stroke-linecap="round"/>
  <path d="M103 61 Q109 58 116 61" stroke="#3D2A1F" stroke-width="1.8" fill="none" stroke-linecap="round"/>
  <ellipse cx="100" cy="74" rx="2.2" ry="1.6" fill="#E8A878" opacity="0.55"/>
  <path d="M91 81 Q100 87 109 81" stroke="#3D2A1F" stroke-width="2.4" fill="none" stroke-linecap="round"/>
  


    <circle cx="91" cy="68" r="7" fill="#A8D4FF" fill-opacity="0.25" stroke="#3D2A1F" stroke-width="2"/>
    <circle cx="109" cy="68" r="7" fill="#A8D4FF" fill-opacity="0.25" stroke="#3D2A1F" stroke-width="2"/>
    <line x1="98" y1="68" x2="102" y2="68" stroke="#3D2A1F" stroke-width="2"/>

    <g transform="translate(42,142)">
      <rect x="0" y="0" width="24" height="30" rx="3" fill="#8B5A30" stroke="#3D2A1F" stroke-width="2.4"/>
      <rect x="3" y="4" width="18" height="22" rx="1" fill="#FFF4D8"/>
      <path d="M6 10 H18 M6 15 H16 M6 20 H14" stroke="#5B8DEF" stroke-width="1.5"/>
    </g>

    <rect x="156" y="88" width="7" height="134" rx="2.5" fill="#C4A04A" stroke="#3D2A1F" stroke-width="2.4"/>
    <circle cx="159.5" cy="86" r="9" fill="#C4A04A" stroke="#3D2A1F" stroke-width="2.4"/>
    

    <circle cx="38" cy="96" r="11" fill="#F5A623" opacity="0.75"/>
    <circle cx="38" cy="96" r="5" fill="#FFE08A" opacity="0.8"/>
  
  <rect x="54" y="298" width="92" height="18" rx="8" fill="#5B8DEF" stroke="#3D2A1F" stroke-width="1.5" opacity="0.95"/>
  <text x="100" y="311" text-anchor="middle" font-family="Verdana, sans-serif" font-size="11" font-weight="700" fill="#FFFDF5">Lv 3 ♂</text>
</svg>
