<?xml version="1.0" encoding="UTF-8"?>
<svg xmlns="http://www.w3.org/2000/svg" viewBox="0 0 200 320" fill="none">
  <title>male level 1</title>
  

  <ellipse cx="100" cy="298" rx="42" ry="7" fill="#000" opacity="0.18"/>
  <rect x="84" y="178" width="14" height="58" rx="5" fill="#5C5346" stroke="#1a1520" stroke-width="3"/>
  <rect x="102" y="178" width="14" height="58" rx="5" fill="#5C5346" stroke="#1a1520" stroke-width="3"/>
  <ellipse cx="91" cy="240" rx="11" ry="6" fill="#3D2B1F" stroke="#1a1520" stroke-width="2.5"/>
  <ellipse cx="109" cy="240" rx="11" ry="6" fill="#3D2B1F" stroke="#1a1520" stroke-width="2.5"/>
  <path d="M74 98 L126 98 L120 175 L80 175 Z" fill="#7A8B9A" stroke="#1a1520" stroke-width="3.5"/>
  <rect x="56" y="105" width="20" height="48" rx="9" fill="#F0C8A0" stroke="#1a1520" stroke-width="3"/>
  <rect x="124" y="105" width="20" height="48" rx="9" fill="#F0C8A0" stroke="#1a1520" stroke-width="3"/>
  
<path d="M82 58 Q100 48 118 58" fill="#3D2B1F" stroke="#1a1520" stroke-width="2" opacity="0.85"/>

  <circle cx="100" cy="72" r="22" fill="#F0C8A0" stroke="#1a1520" stroke-width="3.5"/>
  <ellipse cx="93" cy="70" rx="5" ry="6" fill="#fff" stroke="#1a1520" stroke-width="2"/>
  <ellipse cx="107" cy="70" rx="5" ry="6" fill="#fff" stroke="#1a1520" stroke-width="2"/>
  <circle cx="94" cy="71" r="2.3" fill="#1a1520"/>
  <circle cx="108" cy="71" r="2.3" fill="#1a1520"/>
  
  <path d="M92 82 Q100 88 108 82" stroke="#1a1520" stroke-width="2.5" fill="none" stroke-linecap="round"/>
  


    <circle cx="92" cy="70" r="6" fill="none" stroke="#1a1520" stroke-width="2"/>
    <circle cx="108" cy="70" r="6" fill="none" stroke="#1a1520" stroke-width="2"/>
    <line x1="98" y1="70" x2="102" y2="70" stroke="#1a1520" stroke-width="2"/>

    <rect x="158" y="90" width="6" height="130" rx="2" fill="#8B6914" stroke="#1a1520" stroke-width="2.5"/>
    <circle cx="161" cy="88" r="8" fill="#8B6914" stroke="#1a1520" stroke-width="2.5"/>
  
  <rect x="58" y="300" width="84" height="16" rx="6" fill="#3B6FB2" opacity="0.9"/>
  <text x="100" y="312" text-anchor="middle" font-family="Verdana, sans-serif" font-size="11" font-weight="700" fill="#FFF8E7">Lv 1 ♂</text>
</svg>
