<?xml version="1.0" encoding="UTF-8"?>
<svg xmlns="http://www.w3.org/2000/svg" viewBox="0 0 200 320" fill="none">
  <title>mago male lv 10</title>
  
  <defs>
    <radialGradient id="bg" cx="50%" cy="38%" r="55%">
      <stop offset="0%" stop-color="#FFF8E7" stop-opacity="0.95"/>
      <stop offset="55%" stop-color="#F5E6C8" stop-opacity="0.55"/>
      <stop offset="100%" stop-color="#5B8DEF" stop-opacity="0.12"/>
    </radialGradient>
    <linearGradient id="skinG" x1="0" y1="0" x2="0" y2="1">
      <stop offset="0%" stop-color="#FFE4CC"/>
      <stop offset="55%" stop-color="#F5C9A8"/>
      <stop offset="100%" stop-color="#E8A878"/>
    </linearGradient>
    <linearGradient id="shine" x1="0" y1="0" x2="1" y2="1">
      <stop offset="0%" stop-color="#fff" stop-opacity="0.45"/>
      <stop offset="100%" stop-color="#fff" stop-opacity="0"/>
    </linearGradient>
  </defs>
  <ellipse cx="100" cy="168" rx="78" ry="118" fill="url(#bg)"/>

  

    <ellipse cx="100" cy="292" rx="50" ry="8" fill="#3D2A1F" opacity="0.12"/>
    <path d="M70 98 L48 252 L152 252 L130 98 Z" fill="#3A6BB5" stroke="#3D2A1F" stroke-width="3"/>
    <path d="M78 110 Q100 102 122 110 L140 230 L60 230 Z" fill="url(#shine)"/>
    <circle cx="84" cy="138" r="2.2" fill="#F0D78C"/><circle cx="112" cy="158" r="1.8" fill="#F0D78C"/>
    <circle cx="94" cy="188" r="2.2" fill="#F0D78C"/><circle cx="118" cy="128" r="1.8" fill="#F0D78C"/>
    <rect x="86" y="152" width="28" height="13" rx="4" fill="#F0D78C" stroke="#3D2A1F" stroke-width="2"/>
    <path d="M56 110 Q44 130 48 152 Q54 166 64 162 Q66 140 70 118 Z" fill="url(#skinG)" stroke="#3D2A1F" stroke-width="2.6"/>
    <path d="M144 110 Q156 130 152 152 Q146 166 136 162 Q134 140 130 118 Z" fill="url(#skinG)" stroke="#3D2A1F" stroke-width="2.6"/>

  <path d="M78 60 Q100 42 122 60 Q116 74 100 72 Q84 74 78 60 Z" fill="#4A3428" stroke="#3D2A1F" stroke-width="2" opacity="0.92"/>

  <circle cx="100" cy="70" r="24" fill="url(#skinG)" stroke="#3D2A1F" stroke-width="3"/>
  <ellipse cx="90" cy="74" rx="7" ry="4" fill="#F4A08A" opacity="0.45"/>
  <ellipse cx="110" cy="74" rx="7" ry="4" fill="#F4A08A" opacity="0.45"/>
  <!-- eyes -->
  <ellipse cx="91" cy="68" rx="6.5" ry="7.5" fill="#fff" stroke="#3D2A1F" stroke-width="2"/>
  <ellipse cx="109" cy="68" rx="6.5" ry="7.5" fill="#fff" stroke="#3D2A1F" stroke-width="2"/>
  <circle cx="92.5" cy="69" r="3" fill="#2A4A6E"/>
  <circle cx="110.5" cy="69" r="3" fill="#2A4A6E"/>
  <circle cx="93.5" cy="67.5" r="1.2" fill="#fff"/>
  <circle cx="111.5" cy="67.5" r="1.2" fill="#fff"/>
  <path d="M84 61 Q91 58 97 61" stroke="#3D2A1F" stroke-width="1.8" fill="none" stroke-linecap="round"/>
  <path d="M103 61 Q109 58 116 61" stroke="#3D2A1F" stroke-width="1.8" fill="none" stroke-linecap="round"/>
  <ellipse cx="100" cy="74" rx="2.2" ry="1.6" fill="#E8A878" opacity="0.55"/>
  <path d="M91 81 Q100 87 109 81" stroke="#3D2A1F" stroke-width="2.4" fill="none" stroke-linecap="round"/>
  


    <circle cx="91" cy="68" r="7" fill="#A8D4FF" fill-opacity="0.25" stroke="#3D2A1F" stroke-width="2"/>
    <circle cx="109" cy="68" r="7" fill="#A8D4FF" fill-opacity="0.25" stroke="#3D2A1F" stroke-width="2"/>
    <line x1="98" y1="68" x2="102" y2="68" stroke="#3D2A1F" stroke-width="2"/>

    <g transform="translate(42,142)">
      <rect x="0" y="0" width="24" height="30" rx="3" fill="#8B5A30" stroke="#3D2A1F" stroke-width="2.4"/>
      <rect x="3" y="4" width="18" height="22" rx="1" fill="#FFF4D8"/>
      <path d="M6 10 H18 M6 15 H16 M6 20 H14" stroke="#5B8DEF" stroke-width="1.5"/>
    </g>

    <circle cx="100" cy="118" r="9" fill="#F0D78C" stroke="#3D2A1F" stroke-width="2"/>
    <circle cx="100" cy="118" r="3.5" fill="#5B8DEF"/>
    <line x1="100" y1="98" x2="100" y2="110" stroke="#3D2A1F" stroke-width="2"/>

    <rect x="156" y="66" width="8" height="156" rx="3" fill="#C4A04A" stroke="#3D2A1F" stroke-width="2.4"/>
    <circle cx="160" cy="64" r="15" fill="#7EB8FF" stroke="#3D2A1F" stroke-width="2.8"/>
    <circle cx="160" cy="64" r="8" fill="#C8E4FF"/>
    <circle cx="160" cy="64" r="24" fill="#7EB8FF" opacity="0.28"/>

    <circle cx="38" cy="96" r="11" fill="#F5A623" opacity="0.75"/>
    <circle cx="38" cy="96" r="5" fill="#FFE08A" opacity="0.8"/>
<circle cx="162" cy="52" r="7" fill="#F0D78C" opacity="0.85"/>

    <circle cx="68" cy="198" r="4.5" fill="#F0D78C" opacity="0.65"/>
    <circle cx="132" cy="208" r="4.5" fill="#F0D78C" opacity="0.65"/>

    <path d="M78 48 L100 6 L122 48 Z" fill="#5B8DEF" stroke="#3D2A1F" stroke-width="3"/>
    <ellipse cx="100" cy="50" rx="26" ry="8" fill="#5B8DEF" stroke="#3D2A1F" stroke-width="2.8"/>
    <ellipse cx="100" cy="50" rx="16" ry="3.5" fill="#F0D78C" opacity="0.9"/>
    <path d="M90 30 L100 10 L110 30" fill="none" stroke="#fff" stroke-width="1.5" opacity="0.3"/>
  
  <rect x="54" y="298" width="92" height="18" rx="8" fill="#5B8DEF" stroke="#3D2A1F" stroke-width="1.5" opacity="0.95"/>
  <text x="100" y="311" text-anchor="middle" font-family="Verdana, sans-serif" font-size="11" font-weight="700" fill="#FFFDF5">Lv 10 ♂</text>
</svg>
