<?xml version="1.0" encoding="UTF-8"?>
<svg xmlns="http://www.w3.org/2000/svg" viewBox="0 0 200 320" fill="none">
  <title>bardo female lv 11</title>
  
  <defs>
    <radialGradient id="bg" cx="50%" cy="38%" r="55%">
      <stop offset="0%" stop-color="#FFF8E7" stop-opacity="0.95"/>
      <stop offset="55%" stop-color="#F5E6C8" stop-opacity="0.55"/>
      <stop offset="100%" stop-color="#3CB878" stop-opacity="0.12"/>
    </radialGradient>
    <linearGradient id="skinG" x1="0" y1="0" x2="0" y2="1">
      <stop offset="0%" stop-color="#FFE4CC"/>
      <stop offset="55%" stop-color="#F5C9A8"/>
      <stop offset="100%" stop-color="#E8A878"/>
    </linearGradient>
    <linearGradient id="shine" x1="0" y1="0" x2="1" y2="1">
      <stop offset="0%" stop-color="#fff" stop-opacity="0.45"/>
      <stop offset="100%" stop-color="#fff" stop-opacity="0"/>
    </linearGradient>
  </defs>
  <ellipse cx="100" cy="168" rx="78" ry="118" fill="url(#bg)"/>

  
  <path d="M94 86 Q98 150 96 190" fill="none" stroke="#E8C84A" stroke-width="8" stroke-linecap="round"/>
  <path d="M104 86 Q106 145 108 185" fill="none" stroke="#E8C84A" stroke-width="5" stroke-linecap="round" opacity="0.85"/>
  

    <path d="M74 100 Q32 165 55 248 L94 188 Z" fill="#2A8F5A" stroke="#3D2A1F" stroke-width="2.8"/>
    <path d="M126 100 Q168 165 145 248 L106 188 Z" fill="#2A8F5A" stroke="#3D2A1F" stroke-width="2.8"/>
    <circle cx="52" cy="158" r="3.5" fill="#F0D78C"/><circle cx="148" cy="176" r="3" fill="#F0D78C"/>

  <ellipse cx="100" cy="292" rx="42" ry="8" fill="#3D2A1F" opacity="0.12"/>
  <path d="M78 178 Q80 230 84 246 L96 246 Q94 200 92 178 Z" fill="#C4A574" stroke="#3D2A1F" stroke-width="2.8"/>
  <path d="M108 178 Q106 200 104 246 L116 246 Q120 230 122 178 Z" fill="#C4A574" stroke="#3D2A1F" stroke-width="2.8"/>
  <ellipse cx="88" cy="248" rx="13" ry="9" fill="#A05A28" stroke="#3D2A1F" stroke-width="2.4"/>
  <ellipse cx="112" cy="248" rx="13" ry="9" fill="#A05A28" stroke="#3D2A1F" stroke-width="2.4"/>
  <!-- hip flare -->
  <path d="M82 158 Q100 172 118 158 L124 182 Q100 190 76 182 Z" fill="#C4A574" stroke="#3D2A1F" stroke-width="2.4"/>
  <!-- hourglass torso -->
  <path d="M76 98 Q100 90 124 98 L118 122 Q108 138 114 162 L86 162 Q92 138 82 122 Z" fill="#3CB878" stroke="#3D2A1F" stroke-width="3"/>
  <path d="M86 106 Q100 98 114 106 L112 128 Q100 124 88 128 Z" fill="url(#shine)"/>
  <path d="M78 98 Q100 90 122 98" fill="none" stroke="#F0D78C" stroke-width="3.5" stroke-linecap="round"/>
  <ellipse cx="100" cy="160" rx="15" ry="4.5" fill="#E8C84A" stroke="#3D2A1F" stroke-width="1.8"/>
  <path d="M76 106 Q56 116 54 148 Q52 162 62 166 Q70 162 72 148 Q74 124 80 114 Z" fill="url(#skinG)" stroke="#3D2A1F" stroke-width="2.6"/>
  <path d="M124 106 Q144 116 146 148 Q148 162 138 166 Q130 162 128 148 Q126 124 120 114 Z" fill="url(#skinG)" stroke="#3D2A1F" stroke-width="2.6"/>
  

    <path d="M80 112 H120 M100 112 V168" stroke="#F0D78C" stroke-width="2.6"/>
    <rect x="84" y="150" width="32" height="16" rx="4" fill="#8B5A30" stroke="#3D2A1F" stroke-width="2"/>
    <circle cx="100" cy="158" r="3" fill="#F0D78C"/>

    <rect x="80" y="222" width="18" height="24" rx="4" fill="#A05A28" stroke="#3D2A1F" stroke-width="2.4"/>
    <rect x="102" y="222" width="18" height="24" rx="4" fill="#A05A28" stroke="#3D2A1F" stroke-width="2.4"/>
    <path d="M83 230 H95 M105 230 H117" stroke="#F0D78C" stroke-width="2"/>

    <g transform="translate(142,105)">
      <path d="M0 0 Q20 12 20 52 Q20 74 0 84 Q-8 42 0 0" fill="#D4B080" stroke="#3D2A1F" stroke-width="2.4"/>
      <path d="M2 8 Q14 18 14 52 Q14 68 2 76" fill="none" stroke="#fff" stroke-width="2" opacity="0.3"/>
      <line x1="5" y1="16" x2="5" y2="68" stroke="#3D2A1F" stroke-width="1.2"/>
      <line x1="10" y1="20" x2="10" y2="64" stroke="#3D2A1F" stroke-width="1.2"/>
      <line x1="15" y1="24" x2="15" y2="60" stroke="#3D2A1F" stroke-width="1.2"/>
      
    </g>
<text x="38" y="88" font-size="16" fill="#F0D78C">♪</text>
<text x="152" y="82" font-size="14" fill="#F0D78C">♫</text>
<circle cx="100" cy="138" r="42" fill="#3CB878" opacity="0.12"/>

    <text x="32" y="108" font-size="12" fill="#F0D78C">♪</text>
    <text x="158" y="118" font-size="12" fill="#F0D78C">♪</text>

  <path d="M76 58 Q58 72 56 108 Q54 142 70 160 Q80 150 82 118 Q84 86 78 60 Z" fill="#E8C84A" stroke="#3D2A1F" stroke-width="2"/>
  <path d="M124 58 Q142 72 144 108 Q146 142 130 160 Q120 150 118 118 Q116 86 122 60 Z" fill="#E8C84A" stroke="#3D2A1F" stroke-width="2"/>
  

  <circle cx="100" cy="64" r="23" fill="url(#skinG)" stroke="#3D2A1F" stroke-width="3"/>
  <ellipse cx="90" cy="68" rx="7" ry="4" fill="#F4A08A" opacity="0.45"/>
  <ellipse cx="110" cy="68" rx="7" ry="4" fill="#F4A08A" opacity="0.45"/>
  <!-- eyes -->
  <ellipse cx="91" cy="62" rx="6.5" ry="7.5" fill="#fff" stroke="#3D2A1F" stroke-width="2"/>
  <ellipse cx="109" cy="62" rx="6.5" ry="7.5" fill="#fff" stroke="#3D2A1F" stroke-width="2"/>
  <circle cx="92.5" cy="63" r="3" fill="#2A4A6E"/>
  <circle cx="110.5" cy="63" r="3" fill="#2A4A6E"/>
  <circle cx="93.5" cy="61.5" r="1.2" fill="#fff"/>
  <circle cx="111.5" cy="61.5" r="1.2" fill="#fff"/>
  <path d="M84 56 Q90 51 96 56" stroke="#3D2A1F" stroke-width="1.6" fill="none" stroke-linecap="round"/>
  <path d="M104 56 Q110 51 116 56" stroke="#3D2A1F" stroke-width="1.6" fill="none" stroke-linecap="round"/>
  <ellipse cx="100" cy="68" rx="2.2" ry="1.6" fill="#E8A878" opacity="0.55"/>
  <path d="M91 75 Q100 81 109 75" stroke="#3D2A1F" stroke-width="2.4" fill="none" stroke-linecap="round"/>
  

  <path d="M78 48 Q100 28 122 48 Q116 56 100 54 Q84 56 78 48 Z" fill="#E8C84A" stroke="#3D2A1F" stroke-width="2"/>
  <path d="M82 42 Q100 34 118 42" fill="none" stroke="#E8C84A" stroke-width="6" stroke-linecap="round" opacity="0.7"/>
  <rect x="80" y="44" width="40" height="5.5" rx="2.5" fill="#3CB878" stroke="#3D2A1F" stroke-width="1.6"/>
  <circle cx="100" cy="46.5" r="3" fill="#E85D4C" stroke="#3D2A1F" stroke-width="1.3"/>
  

    <ellipse cx="100" cy="42" rx="26" ry="8" fill="#3CB878" stroke="#3D2A1F" stroke-width="2.4"/>
    <ellipse cx="100" cy="40" rx="18" ry="4" fill="#5FD090" opacity="0.5"/>
    <path d="M120 40 Q146 20 140 52" fill="#E85D4C" stroke="#3D2A1F" stroke-width="2"/>
    <path d="M138 28 Q148 24 144 40" fill="#FF8A70" opacity="0.7"/>
  
  <rect x="54" y="298" width="92" height="18" rx="8" fill="#3CB878" stroke="#3D2A1F" stroke-width="1.5" opacity="0.95"/>
  <text x="100" y="311" text-anchor="middle" font-family="Verdana, sans-serif" font-size="11" font-weight="700" fill="#FFFDF5">Lv 11 ♀</text>
</svg>
