<?xml version="1.0" encoding="UTF-8"?>
<svg xmlns="http://www.w3.org/2000/svg" viewBox="0 0 200 320" fill="none">
  <title>guerreiro male lv 9</title>
  
  <defs>
    <radialGradient id="bg" cx="50%" cy="38%" r="55%">
      <stop offset="0%" stop-color="#FFF8E7" stop-opacity="0.95"/>
      <stop offset="55%" stop-color="#F5E6C8" stop-opacity="0.55"/>
      <stop offset="100%" stop-color="#D45A4A" stop-opacity="0.12"/>
    </radialGradient>
    <linearGradient id="skinG" x1="0" y1="0" x2="0" y2="1">
      <stop offset="0%" stop-color="#FFE4CC"/>
      <stop offset="55%" stop-color="#F5C9A8"/>
      <stop offset="100%" stop-color="#E8A878"/>
    </linearGradient>
    <linearGradient id="shine" x1="0" y1="0" x2="1" y2="1">
      <stop offset="0%" stop-color="#fff" stop-opacity="0.45"/>
      <stop offset="100%" stop-color="#fff" stop-opacity="0"/>
    </linearGradient>
  </defs>
  <ellipse cx="100" cy="168" rx="78" ry="118" fill="url(#bg)"/>

  

    <path d="M78 102 Q36 155 48 248 L92 195 Z" fill="#D45A4A" stroke="#3D2A1F" stroke-width="2.8"/>
    <path d="M122 102 Q164 155 152 248 L108 195 Z" fill="#D45A4A" stroke="#3D2A1F" stroke-width="2.8"/>
    <path d="M78 102 Q36 155 48 248" fill="none" stroke="#fff" stroke-width="2" opacity="0.2"/>

  <ellipse cx="100" cy="292" rx="40" ry="8" fill="#3D2A1F" opacity="0.12"/>
  <!-- legs -->
  <path d="M82 176 Q84 230 86 248 L96 248 Q94 200 94 176 Z" fill="#5A6B80" stroke="#3D2A1F" stroke-width="2.8"/>
  <path d="M106 176 Q106 200 104 248 L114 248 Q116 230 118 176 Z" fill="#5A6B80" stroke="#3D2A1F" stroke-width="2.8"/>
  <ellipse cx="90" cy="250" rx="13" ry="8" fill="#5C3A28" stroke="#3D2A1F" stroke-width="2.4"/>
  <ellipse cx="110" cy="250" rx="13" ry="8" fill="#5C3A28" stroke="#3D2A1F" stroke-width="2.4"/>
  <!-- torso -->
  <path d="M72 100 Q100 94 128 100 L124 178 Q100 186 76 178 Z" fill="#D8E0EA" stroke="#3D2A1F" stroke-width="3"/>
  <path d="M80 108 Q100 102 120 108 L118 140 Q100 136 82 140 Z" fill="url(#shine)"/>
  <path d="M76 150 Q100 162 124 150" fill="none" stroke="#9AA8B8" stroke-width="3" opacity="0.35"/>
  <!-- arms -->
  <path d="M72 108 Q52 118 50 152 Q48 168 58 172 Q66 168 68 152 Q70 128 76 116 Z" fill="url(#skinG)" stroke="#3D2A1F" stroke-width="2.6"/>
  <path d="M128 108 Q148 118 150 152 Q152 168 142 172 Q134 168 132 152 Q130 128 124 116 Z" fill="url(#skinG)" stroke="#3D2A1F" stroke-width="2.6"/>
  <ellipse cx="100" cy="102" rx="22" ry="5" fill="#A67C52" opacity="0.55"/>
  

    <path d="M82 118 H118 M82 138 H118 M82 158 H118" stroke="#E8C84A" stroke-width="2.2" opacity="0.85"/>
    <path d="M86 112 Q100 108 114 112" fill="none" stroke="#9AA8B8" stroke-width="2" opacity="0.5"/>

    <g transform="translate(30,112)">
      <path d="M10 2 L36 8 L34 52 L20 66 L6 52 Z" fill="#C4A04A" stroke="#3D2A1F" stroke-width="2.8"/>
      <path d="M14 10 L30 14 L28 46 L16 56 L10 46 Z" fill="#E8D090" opacity="0.45"/>
      <path d="M20 14 L24 32 L20 50 L16 32 Z" fill="#3D2A1F" opacity="0.35"/>
      <circle cx="20" cy="34" r="24" fill="#D45A4A" opacity="0.4"/>
    </g>

    <g transform="translate(150,98) rotate(-22)">
      <rect x="0" y="-18" width="9" height="52" rx="2" fill="#C4A04A" stroke="#3D2A1F" stroke-width="2"/>
      <path d="M-16 -30 L24 -30 L20 -6 L-12 -6 Z" fill="#D8E0EA" stroke="#3D2A1F" stroke-width="2.4"/>
      <path d="M-10 -28 L-10 -34 M4 -28 L4 -36 M18 -28 L18 -34" stroke="#6BA3F0" stroke-width="2.2"/>
    </g>

    <circle cx="100" cy="70" r="36" fill="none" stroke="#D45A4A" stroke-width="2.2" opacity="0.35"/>
    <circle cx="100" cy="70" r="44" fill="none" stroke="#E8C84A" stroke-width="1.5" opacity="0.25"/>

  <path d="M76 58 Q100 36 124 58 Q118 72 100 70 Q82 72 76 58 Z" fill="#6B3E22" stroke="#3D2A1F" stroke-width="2"/>
  <path d="M78 56 Q88 48 94 58" fill="none" stroke="#8B5A30" stroke-width="3" stroke-linecap="round"/>

  <circle cx="100" cy="70" r="24" fill="url(#skinG)" stroke="#3D2A1F" stroke-width="3"/>
  <ellipse cx="90" cy="74" rx="7" ry="4" fill="#F4A08A" opacity="0.45"/>
  <ellipse cx="110" cy="74" rx="7" ry="4" fill="#F4A08A" opacity="0.45"/>
  <!-- eyes -->
  <ellipse cx="91" cy="68" rx="6.5" ry="7.5" fill="#fff" stroke="#3D2A1F" stroke-width="2"/>
  <ellipse cx="109" cy="68" rx="6.5" ry="7.5" fill="#fff" stroke="#3D2A1F" stroke-width="2"/>
  <circle cx="92.5" cy="69" r="3" fill="#2A4A6E"/>
  <circle cx="110.5" cy="69" r="3" fill="#2A4A6E"/>
  <circle cx="93.5" cy="67.5" r="1.2" fill="#fff"/>
  <circle cx="111.5" cy="67.5" r="1.2" fill="#fff"/>
  <path d="M84 61 Q91 58 97 61" stroke="#3D2A1F" stroke-width="1.8" fill="none" stroke-linecap="round"/>
  <path d="M103 61 Q109 58 116 61" stroke="#3D2A1F" stroke-width="1.8" fill="none" stroke-linecap="round"/>
  <ellipse cx="100" cy="74" rx="2.2" ry="1.6" fill="#E8A878" opacity="0.55"/>
  <path d="M91 81 Q100 87 109 81" stroke="#3D2A1F" stroke-width="2.4" fill="none" stroke-linecap="round"/>
  


    <path d="M76 40 Q100 22 124 40 L120 52 Q100 46 80 52 Z" fill="#D8E0EA" stroke="#3D2A1F" stroke-width="2.8"/>
    <path d="M82 42 Q100 32 118 42" fill="none" stroke="#fff" stroke-width="2" opacity="0.35"/>
    <rect x="95" y="20" width="10" height="16" rx="2" fill="#D45A4A" stroke="#3D2A1F" stroke-width="2"/>
  
  <rect x="54" y="298" width="92" height="18" rx="8" fill="#D45A4A" stroke="#3D2A1F" stroke-width="1.5" opacity="0.95"/>
  <text x="100" y="311" text-anchor="middle" font-family="Verdana, sans-serif" font-size="11" font-weight="700" fill="#FFFDF5">Lv 9 ♂</text>
</svg>
