<?xml version="1.0" encoding="UTF-8"?>
<svg xmlns="http://www.w3.org/2000/svg" viewBox="0 0 200 320" fill="none">
  <title>male level 2</title>
  

  <ellipse cx="100" cy="298" rx="42" ry="7" fill="#000" opacity="0.18"/>
  <rect x="84" y="178" width="14" height="58" rx="5" fill="#4A5568" stroke="#1a1520" stroke-width="3"/>
  <rect x="102" y="178" width="14" height="58" rx="5" fill="#4A5568" stroke="#1a1520" stroke-width="3"/>
  <ellipse cx="91" cy="240" rx="11" ry="6" fill="#3D2B1F" stroke="#1a1520" stroke-width="2.5"/>
  <ellipse cx="109" cy="240" rx="11" ry="6" fill="#3D2B1F" stroke="#1a1520" stroke-width="2.5"/>
  <path d="M74 98 L126 98 L120 175 L80 175 Z" fill="#A67C52" stroke="#1a1520" stroke-width="3.5"/>
  <rect x="56" y="105" width="20" height="48" rx="9" fill="#F0C8A0" stroke="#1a1520" stroke-width="3"/>
  <rect x="124" y="105" width="20" height="48" rx="9" fill="#F0C8A0" stroke="#1a1520" stroke-width="3"/>
  

    <g transform="translate(36,115)">
      <path d="M8 0 L32 6 L30 48 L18 60 L6 48 Z" fill="#8B6914" stroke="#1a1520" stroke-width="3"/>
      <path d="M18 12 L22 28 L18 44 L14 28 Z" fill="#1a1520" opacity="0.5"/>
      <circle cx="18" cy="30" r="22" fill="#B2453B" opacity="0"/>
    </g>

    <g transform="translate(148,95) rotate(-20)">
      <rect x="0" y="-55" width="6" height="55" rx="1" fill="#C0C8D4" stroke="#1a1520" stroke-width="2.5"/>
      <rect x="-6" y="-4" width="18" height="8" rx="2" fill="#B2453B" stroke="#1a1520" stroke-width="2"/>
    </g>
<path d="M80 58 Q100 44 120 58" fill="#5C3A1E" stroke="#1a1520" stroke-width="2"/>

  <circle cx="100" cy="72" r="22" fill="#F0C8A0" stroke="#1a1520" stroke-width="3.5"/>
  <ellipse cx="93" cy="70" rx="5" ry="6" fill="#fff" stroke="#1a1520" stroke-width="2"/>
  <ellipse cx="107" cy="70" rx="5" ry="6" fill="#fff" stroke="#1a1520" stroke-width="2"/>
  <circle cx="94" cy="71" r="2.3" fill="#1a1520"/>
  <circle cx="108" cy="71" r="2.3" fill="#1a1520"/>
  
  <path d="M92 82 Q100 88 108 82" stroke="#1a1520" stroke-width="2.5" fill="none" stroke-linecap="round"/>
  

  
  <rect x="58" y="300" width="84" height="16" rx="6" fill="#B2453B" opacity="0.9"/>
  <text x="100" y="312" text-anchor="middle" font-family="Verdana, sans-serif" font-size="11" font-weight="700" fill="#FFF8E7">Lv 2 ♂</text>
</svg>
