<?xml version="1.0" encoding="UTF-8"?>
<svg xmlns="http://www.w3.org/2000/svg" viewBox="0 0 200 320" fill="none">
  <title>guerreiro male lv 1</title>
  
  <defs>
    <radialGradient id="bg" cx="50%" cy="38%" r="55%">
      <stop offset="0%" stop-color="#FFF8E7" stop-opacity="0.95"/>
      <stop offset="55%" stop-color="#F5E6C8" stop-opacity="0.55"/>
      <stop offset="100%" stop-color="#D45A4A" stop-opacity="0.12"/>
    </radialGradient>
    <linearGradient id="skinG" x1="0" y1="0" x2="0" y2="1">
      <stop offset="0%" stop-color="#FFE4CC"/>
      <stop offset="55%" stop-color="#F5C9A8"/>
      <stop offset="100%" stop-color="#E8A878"/>
    </linearGradient>
    <linearGradient id="shine" x1="0" y1="0" x2="1" y2="1">
      <stop offset="0%" stop-color="#fff" stop-opacity="0.45"/>
      <stop offset="100%" stop-color="#fff" stop-opacity="0"/>
    </linearGradient>
  </defs>
  <ellipse cx="100" cy="168" rx="78" ry="118" fill="url(#bg)"/>

  

  <ellipse cx="100" cy="292" rx="40" ry="8" fill="#3D2A1F" opacity="0.12"/>
  <!-- legs -->
  <path d="M82 176 Q84 230 86 248 L96 248 Q94 200 94 176 Z" fill="#6B7A8F" stroke="#3D2A1F" stroke-width="2.8"/>
  <path d="M106 176 Q106 200 104 248 L114 248 Q116 230 118 176 Z" fill="#6B7A8F" stroke="#3D2A1F" stroke-width="2.8"/>
  <ellipse cx="90" cy="250" rx="13" ry="8" fill="#5C3A28" stroke="#3D2A1F" stroke-width="2.4"/>
  <ellipse cx="110" cy="250" rx="13" ry="8" fill="#5C3A28" stroke="#3D2A1F" stroke-width="2.4"/>
  <!-- torso -->
  <path d="M72 100 Q100 94 128 100 L124 178 Q100 186 76 178 Z" fill="#E0B070" stroke="#3D2A1F" stroke-width="3"/>
  <path d="M80 108 Q100 102 120 108 L118 140 Q100 136 82 140 Z" fill="url(#shine)"/>
  <path d="M76 150 Q100 162 124 150" fill="none" stroke="#C49050" stroke-width="3" opacity="0.35"/>
  <!-- arms -->
  <path d="M72 108 Q52 118 50 152 Q48 168 58 172 Q66 168 68 152 Q70 128 76 116 Z" fill="url(#skinG)" stroke="#3D2A1F" stroke-width="2.6"/>
  <path d="M128 108 Q148 118 150 152 Q152 168 142 172 Q134 168 132 152 Q130 128 124 116 Z" fill="url(#skinG)" stroke="#3D2A1F" stroke-width="2.6"/>
  <ellipse cx="100" cy="102" rx="22" ry="5" fill="#A67C52" opacity="0.55"/>
  

    <g transform="translate(148,92) rotate(-18)">
      <rect x="0" y="-58" width="7" height="58" rx="1.5" fill="#D8E0EA" stroke="#3D2A1F" stroke-width="2.4"/>
      <path d="M1 -54 L6 -54 L6 -20 L1 -20 Z" fill="#fff" opacity="0.3"/>
      <rect x="-7" y="-3" width="20" height="9" rx="2" fill="#D45A4A" stroke="#3D2A1F" stroke-width="2"/>
    </g>

  <path d="M76 58 Q100 36 124 58 Q118 72 100 70 Q82 72 76 58 Z" fill="#6B3E22" stroke="#3D2A1F" stroke-width="2"/>
  <path d="M78 56 Q88 48 94 58" fill="none" stroke="#8B5A30" stroke-width="3" stroke-linecap="round"/>

  <circle cx="100" cy="70" r="24" fill="url(#skinG)" stroke="#3D2A1F" stroke-width="3"/>
  <ellipse cx="90" cy="74" rx="7" ry="4" fill="#F4A08A" opacity="0.45"/>
  <ellipse cx="110" cy="74" rx="7" ry="4" fill="#F4A08A" opacity="0.45"/>
  <!-- eyes -->
  <ellipse cx="91" cy="68" rx="6.5" ry="7.5" fill="#fff" stroke="#3D2A1F" stroke-width="2"/>
  <ellipse cx="109" cy="68" rx="6.5" ry="7.5" fill="#fff" stroke="#3D2A1F" stroke-width="2"/>
  <circle cx="92.5" cy="69" r="3" fill="#2A4A6E"/>
  <circle cx="110.5" cy="69" r="3" fill="#2A4A6E"/>
  <circle cx="93.5" cy="67.5" r="1.2" fill="#fff"/>
  <circle cx="111.5" cy="67.5" r="1.2" fill="#fff"/>
  <path d="M84 61 Q91 58 97 61" stroke="#3D2A1F" stroke-width="1.8" fill="none" stroke-linecap="round"/>
  <path d="M103 61 Q109 58 116 61" stroke="#3D2A1F" stroke-width="1.8" fill="none" stroke-linecap="round"/>
  <ellipse cx="100" cy="74" rx="2.2" ry="1.6" fill="#E8A878" opacity="0.55"/>
  <path d="M91 81 Q100 87 109 81" stroke="#3D2A1F" stroke-width="2.4" fill="none" stroke-linecap="round"/>
  

  
  <rect x="54" y="298" width="92" height="18" rx="8" fill="#D45A4A" stroke="#3D2A1F" stroke-width="1.5" opacity="0.95"/>
  <text x="100" y="311" text-anchor="middle" font-family="Verdana, sans-serif" font-size="11" font-weight="700" fill="#FFFDF5">Lv 1 ♂</text>
</svg>
