<?xml version="1.0" encoding="UTF-8"?>
<svg xmlns="http://www.w3.org/2000/svg" viewBox="0 0 200 320" fill="none">
  <title>male level 10</title>
  

    <path d="M78 100 Q40 160 55 250 L90 200 Z" fill="#B2453B" stroke="#1a1520" stroke-width="3"/>
    <path d="M122 100 Q160 160 145 250 L110 200 Z" fill="#B2453B" stroke="#1a1520" stroke-width="3"/>

  <ellipse cx="100" cy="298" rx="42" ry="7" fill="#000" opacity="0.18"/>
  <rect x="84" y="178" width="14" height="58" rx="5" fill="#3D4A5C" stroke="#1a1520" stroke-width="3"/>
  <rect x="102" y="178" width="14" height="58" rx="5" fill="#3D4A5C" stroke="#1a1520" stroke-width="3"/>
  <ellipse cx="91" cy="240" rx="11" ry="6" fill="#3D2B1F" stroke="#1a1520" stroke-width="2.5"/>
  <ellipse cx="109" cy="240" rx="11" ry="6" fill="#3D2B1F" stroke="#1a1520" stroke-width="2.5"/>
  <path d="M74 98 L126 98 L120 175 L80 175 Z" fill="#C0C8D4" stroke="#1a1520" stroke-width="3.5"/>
  <rect x="56" y="105" width="20" height="48" rx="9" fill="#F0C8A0" stroke="#1a1520" stroke-width="3"/>
  <rect x="124" y="105" width="20" height="48" rx="9" fill="#F0C8A0" stroke="#1a1520" stroke-width="3"/>
  
<path d="M82 115 H118 M82 135 H118 M82 155 H118" stroke="#D4AF37" stroke-width="2" opacity="0.75"/>

    <g transform="translate(36,115)">
      <path d="M8 0 L32 6 L30 48 L18 60 L6 48 Z" fill="#8B6914" stroke="#1a1520" stroke-width="3"/>
      <path d="M18 12 L22 28 L18 44 L14 28 Z" fill="#1a1520" opacity="0.5"/>
      <circle cx="18" cy="30" r="22" fill="#B2453B" opacity="0.35"/>
    </g>

    <rect x="54" y="140" width="24" height="18" rx="4" fill="#C0C8D4" stroke="#1a1520" stroke-width="2.5"/>
    <rect x="122" y="140" width="24" height="18" rx="4" fill="#C0C8D4" stroke="#1a1520" stroke-width="2.5"/>

    <g transform="translate(150,100) rotate(-25)">
      <rect x="0" y="-20" width="8" height="50" fill="#8B6914" stroke="#1a1520" stroke-width="2"/>
      <path d="M-14 -28 L22 -28 L18 -8 L-10 -8 Z" fill="#C0C8D4" stroke="#1a1520" stroke-width="2.5"/>
      <path d="M-8 -26 L-8 -32 M4 -26 L4 -34 M16 -26 L16 -32" stroke="#5B8DEF" stroke-width="2"/>
    </g>

    <circle cx="100" cy="72" r="34" fill="none" stroke="#B2453B" stroke-width="2" opacity="0.4"/>
    <circle cx="100" cy="72" r="42" fill="none" stroke="#B2453B" stroke-width="1.5" opacity="0.25"/>
<path d="M80 58 Q100 44 120 58" fill="#5C3A1E" stroke="#1a1520" stroke-width="2"/>

  <circle cx="100" cy="72" r="22" fill="#F0C8A0" stroke="#1a1520" stroke-width="3.5"/>
  <ellipse cx="93" cy="70" rx="5" ry="6" fill="#fff" stroke="#1a1520" stroke-width="2"/>
  <ellipse cx="107" cy="70" rx="5" ry="6" fill="#fff" stroke="#1a1520" stroke-width="2"/>
  <circle cx="94" cy="71" r="2.3" fill="#1a1520"/>
  <circle cx="108" cy="71" r="2.3" fill="#1a1520"/>
  
  <path d="M92 82 Q100 88 108 82" stroke="#1a1520" stroke-width="2.5" fill="none" stroke-linecap="round"/>
  


    <path d="M78 42 Q100 26 122 42 L118 52 Q100 46 82 52 Z" fill="#C0C8D4" stroke="#1a1520" stroke-width="3"/>
    <rect x="96" y="24" width="8" height="14" fill="#B2453B" stroke="#1a1520" stroke-width="2"/>
  
  <rect x="58" y="300" width="84" height="16" rx="6" fill="#B2453B" opacity="0.9"/>
  <text x="100" y="312" text-anchor="middle" font-family="Verdana, sans-serif" font-size="11" font-weight="700" fill="#FFF8E7">Lv 10 ♂</text>
</svg>
