<svg xmlns="http://www.w3.org/2000/svg" viewBox="0 0 800 600">
  <defs>
    <linearGradient id="g" x1="0" y1="0" x2="1" y2="1">
      <stop offset="0%" stop-color="#431407"/>
      <stop offset="55%" stop-color="#EA580C" stop-opacity="0.45"/>
      <stop offset="100%" stop-color="#431407"/>
    </linearGradient>
  </defs>
  <rect width="800" height="600" fill="url(#g)"/>
  <rect width="800" height="600" fill="#FDBA74" opacity="0.06"/>

  <!-- banners -->
  <path d="M120 80 L120 220 L160 200 L200 220 L200 80 Z" fill="#EA580C" opacity="0.75"/>
  <path d="M600 80 L600 220 L640 200 L680 220 L680 80 Z" fill="#FDBA74" opacity="0.7"/>
  <line x1="80" y1="80" x2="720" y2="80" stroke="#FDBA74" stroke-width="6"/>
  <!-- lute -->
  <ellipse cx="400" cy="320" rx="70" ry="90" fill="#9A3412" stroke="#FDBA74" stroke-width="4"/>
  <rect x="385" y="180" width="30" height="140" rx="6" fill="#C2410C" stroke="#FDBA74" stroke-width="3"/>
  <circle cx="400" cy="310" r="28" fill="#431407" stroke="#FDBA74" stroke-width="3"/>
  <!-- confetti -->
  <circle cx="250" cy="160" r="8" fill="#FBBF24"/><circle cx="520" cy="140" r="6" fill="#FB923C"/>
  <rect x="300" y="120" width="14" height="14" fill="#FDBA74" transform="rotate(20 307 127)"/>
  <rect x="550" y="180" width="12" height="12" fill="#EA580C" transform="rotate(-15 556 186)"/>

</svg>
