<?xml version="1.0" encoding="UTF-8"?>
<svg xmlns="http://www.w3.org/2000/svg" viewBox="0 0 200 320" fill="none">
  <title>female level 0</title>
  
  <path d="M96 88 Q100 140 98 185" fill="none" stroke="#3D2B1F" stroke-width="7" stroke-linecap="round"/>
  

  <ellipse cx="100" cy="298" rx="44" ry="7" fill="#000" opacity="0.18"/>
  <rect x="80" y="178" width="13" height="56" rx="6" fill="#5C5346" stroke="#1a1520" stroke-width="3"/>
  <rect x="107" y="178" width="13" height="56" rx="6" fill="#5C5346" stroke="#1a1520" stroke-width="3"/>
  <ellipse cx="87" cy="238" rx="12" ry="8" fill="#3D2B1F" stroke="#1a1520" stroke-width="2.5"/>
  <ellipse cx="113" cy="238" rx="12" ry="8" fill="#3D2B1F" stroke="#1a1520" stroke-width="2.5"/>
  <!-- hip flare -->
  <path d="M84 155 Q100 168 116 155 L122 178 L78 178 Z" fill="#5C5346" stroke="#1a1520" stroke-width="2.5"/>
  <!-- torso: shoulders → waist → hips -->
  <path d="M78 98 L122 98 L116 118 L104 140 L112 160 L88 160 L96 140 L84 118 Z" fill="#9AABB8" stroke="#1a1520" stroke-width="3.5"/>
  <path d="M86 108 Q100 120 114 108" fill="#9AABB8" stroke="#1a1520" stroke-width="2"/>
  <path d="M78 98 Q100 92 122 98" fill="none" stroke="#6B4423" stroke-width="4" stroke-linecap="round"/>
  <ellipse cx="100" cy="158" rx="16" ry="5" fill="#D4AF37" stroke="#1a1520" stroke-width="2"/>
  <rect x="58" y="102" width="14" height="42" rx="7" fill="#F0C8A0" stroke="#1a1520" stroke-width="3"/>
  <rect x="128" y="102" width="14" height="42" rx="7" fill="#F0C8A0" stroke="#1a1520" stroke-width="3"/>
  

  <path d="M78 62 Q60 78 58 110 Q56 140 70 155 Q78 148 80 120 Q82 90 78 62" fill="#3D2B1F" stroke="#1a1520" stroke-width="2"/>
  <path d="M122 62 Q140 78 142 110 Q144 140 130 155 Q122 148 120 120 Q118 90 122 62" fill="#3D2B1F" stroke="#1a1520" stroke-width="2"/>
  

  <circle cx="100" cy="66" r="21" fill="#F0C8A0" stroke="#1a1520" stroke-width="3.5"/>
  <ellipse cx="93" cy="64" rx="5" ry="6" fill="#fff" stroke="#1a1520" stroke-width="2"/>
  <ellipse cx="107" cy="64" rx="5" ry="6" fill="#fff" stroke="#1a1520" stroke-width="2"/>
  <circle cx="94" cy="65" r="2.3" fill="#1a1520"/>
  <circle cx="108" cy="65" r="2.3" fill="#1a1520"/>
  <path d="M88 60 Q92 56 96 60" stroke="#1a1520" stroke-width="1.5" fill="none"/>
  <path d="M104 60 Q108 56 112 60" stroke="#1a1520" stroke-width="1.5" fill="none"/>
  <path d="M92 76 Q100 82 108 76" stroke="#1a1520" stroke-width="2.5" fill="none" stroke-linecap="round"/>
  

  <path d="M84 44 Q100 34 116 44 Q110 48 100 46 Q90 48 84 44" fill="#3D2B1F" stroke="#1a1520" stroke-width="2"/>
  <rect x="82" y="44" width="36" height="5" rx="2.5" fill="#F0D78C" stroke="#1a1520" stroke-width="1.8"/>
  <circle cx="100" cy="46.5" r="2.8" fill="#3B6FB2" stroke="#1a1520" stroke-width="1.4"/>
  

    <circle cx="92" cy="64" r="6" fill="none" stroke="#1a1520" stroke-width="2"/>
    <circle cx="108" cy="64" r="6" fill="none" stroke="#1a1520" stroke-width="2"/>
    <line x1="98" y1="64" x2="102" y2="64" stroke="#1a1520" stroke-width="2"/>
  
  <rect x="58" y="300" width="84" height="16" rx="6" fill="#3B6FB2" opacity="0.9"/>
  <text x="100" y="312" text-anchor="middle" font-family="Verdana, sans-serif" font-size="11" font-weight="700" fill="#FFF8E7">Lv 0 ♀</text>
</svg>
