<?xml version="1.0" encoding="UTF-8"?>
<svg xmlns="http://www.w3.org/2000/svg" viewBox="0 0 200 320" fill="none">
  <title>mago female lv 0</title>
  
  <defs>
    <radialGradient id="bg" cx="50%" cy="38%" r="55%">
      <stop offset="0%" stop-color="#FFF8E7" stop-opacity="0.95"/>
      <stop offset="55%" stop-color="#F5E6C8" stop-opacity="0.55"/>
      <stop offset="100%" stop-color="#5B8DEF" stop-opacity="0.12"/>
    </radialGradient>
    <linearGradient id="skinG" x1="0" y1="0" x2="0" y2="1">
      <stop offset="0%" stop-color="#FFE4CC"/>
      <stop offset="55%" stop-color="#F5C9A8"/>
      <stop offset="100%" stop-color="#E8A878"/>
    </linearGradient>
    <linearGradient id="shine" x1="0" y1="0" x2="1" y2="1">
      <stop offset="0%" stop-color="#fff" stop-opacity="0.45"/>
      <stop offset="100%" stop-color="#fff" stop-opacity="0"/>
    </linearGradient>
  </defs>
  <ellipse cx="100" cy="168" rx="78" ry="118" fill="url(#bg)"/>

  
  <path d="M94 86 Q98 150 96 190" fill="none" stroke="#4A3428" stroke-width="8" stroke-linecap="round"/>
  <path d="M104 86 Q106 145 108 185" fill="none" stroke="#4A3428" stroke-width="5" stroke-linecap="round" opacity="0.85"/>
  

  <ellipse cx="100" cy="292" rx="42" ry="8" fill="#3D2A1F" opacity="0.12"/>
  <path d="M78 178 Q80 230 84 246 L96 246 Q94 200 92 178 Z" fill="#6B7A8F" stroke="#3D2A1F" stroke-width="2.8"/>
  <path d="M108 178 Q106 200 104 246 L116 246 Q120 230 122 178 Z" fill="#6B7A8F" stroke="#3D2A1F" stroke-width="2.8"/>
  <ellipse cx="88" cy="248" rx="13" ry="9" fill="#5C3A28" stroke="#3D2A1F" stroke-width="2.4"/>
  <ellipse cx="112" cy="248" rx="13" ry="9" fill="#5C3A28" stroke="#3D2A1F" stroke-width="2.4"/>
  <!-- hip flare -->
  <path d="M82 158 Q100 172 118 158 L124 182 Q100 190 76 182 Z" fill="#6B7A8F" stroke="#3D2A1F" stroke-width="2.4"/>
  <!-- hourglass torso -->
  <path d="M76 98 Q100 90 124 98 L118 122 Q108 138 114 162 L86 162 Q92 138 82 122 Z" fill="#A8C0D8" stroke="#3D2A1F" stroke-width="3"/>
  <path d="M86 106 Q100 98 114 106 L112 128 Q100 124 88 128 Z" fill="url(#shine)"/>
  <path d="M78 98 Q100 90 122 98" fill="none" stroke="#F0D78C" stroke-width="3.5" stroke-linecap="round"/>
  <ellipse cx="100" cy="160" rx="15" ry="4.5" fill="#E8C84A" stroke="#3D2A1F" stroke-width="1.8"/>
  <path d="M76 106 Q56 116 54 148 Q52 162 62 166 Q70 162 72 148 Q74 124 80 114 Z" fill="url(#skinG)" stroke="#3D2A1F" stroke-width="2.6"/>
  <path d="M124 106 Q144 116 146 148 Q148 162 138 166 Q130 162 128 148 Q126 124 120 114 Z" fill="url(#skinG)" stroke="#3D2A1F" stroke-width="2.6"/>
  

  <path d="M76 58 Q58 72 56 108 Q54 142 70 160 Q80 150 82 118 Q84 86 78 60 Z" fill="#4A3428" stroke="#3D2A1F" stroke-width="2"/>
  <path d="M124 58 Q142 72 144 108 Q146 142 130 160 Q120 150 118 118 Q116 86 122 60 Z" fill="#4A3428" stroke="#3D2A1F" stroke-width="2"/>
  

  <circle cx="100" cy="64" r="23" fill="url(#skinG)" stroke="#3D2A1F" stroke-width="3"/>
  <ellipse cx="90" cy="68" rx="7" ry="4" fill="#F4A08A" opacity="0.45"/>
  <ellipse cx="110" cy="68" rx="7" ry="4" fill="#F4A08A" opacity="0.45"/>
  <!-- eyes -->
  <ellipse cx="91" cy="62" rx="6.5" ry="7.5" fill="#fff" stroke="#3D2A1F" stroke-width="2"/>
  <ellipse cx="109" cy="62" rx="6.5" ry="7.5" fill="#fff" stroke="#3D2A1F" stroke-width="2"/>
  <circle cx="92.5" cy="63" r="3" fill="#2A4A6E"/>
  <circle cx="110.5" cy="63" r="3" fill="#2A4A6E"/>
  <circle cx="93.5" cy="61.5" r="1.2" fill="#fff"/>
  <circle cx="111.5" cy="61.5" r="1.2" fill="#fff"/>
  <path d="M84 56 Q90 51 96 56" stroke="#3D2A1F" stroke-width="1.6" fill="none" stroke-linecap="round"/>
  <path d="M104 56 Q110 51 116 56" stroke="#3D2A1F" stroke-width="1.6" fill="none" stroke-linecap="round"/>
  <ellipse cx="100" cy="68" rx="2.2" ry="1.6" fill="#E8A878" opacity="0.55"/>
  <path d="M91 75 Q100 81 109 75" stroke="#3D2A1F" stroke-width="2.4" fill="none" stroke-linecap="round"/>
  

  <path d="M78 48 Q100 28 122 48 Q116 56 100 54 Q84 56 78 48 Z" fill="#4A3428" stroke="#3D2A1F" stroke-width="2"/>
  <path d="M82 42 Q100 34 118 42" fill="none" stroke="#4A3428" stroke-width="6" stroke-linecap="round" opacity="0.7"/>
  <rect x="80" y="44" width="40" height="5.5" rx="2.5" fill="#F0D78C" stroke="#3D2A1F" stroke-width="1.6"/>
  <circle cx="100" cy="46.5" r="3" fill="#5B8DEF" stroke="#3D2A1F" stroke-width="1.3"/>
  

    <circle cx="91" cy="62" r="7" fill="#A8D4FF" fill-opacity="0.25" stroke="#3D2A1F" stroke-width="2"/>
    <circle cx="109" cy="62" r="7" fill="#A8D4FF" fill-opacity="0.25" stroke="#3D2A1F" stroke-width="2"/>
    <line x1="98" y1="62" x2="102" y2="62" stroke="#3D2A1F" stroke-width="2"/>
  
  <rect x="54" y="298" width="92" height="18" rx="8" fill="#5B8DEF" stroke="#3D2A1F" stroke-width="1.5" opacity="0.95"/>
  <text x="100" y="311" text-anchor="middle" font-family="Verdana, sans-serif" font-size="11" font-weight="700" fill="#FFFDF5">Lv 0 ♀</text>
</svg>
