<?xml version="1.0" encoding="UTF-8"?>
<svg xmlns="http://www.w3.org/2000/svg" viewBox="0 0 200 320" fill="none">
  <title>male level 11</title>
  

    <path d="M75 100 Q35 170 60 250 L95 190 Z" fill="#1E5C38" stroke="#1a1520" stroke-width="3"/>
    <path d="M125 100 Q165 170 140 250 L105 190 Z" fill="#1E5C38" stroke="#1a1520" stroke-width="3"/>
    <circle cx="55" cy="160" r="3" fill="#F0D78C"/><circle cx="145" cy="180" r="2.5" fill="#F0D78C"/>

  <ellipse cx="100" cy="298" rx="42" ry="7" fill="#000" opacity="0.18"/>
  <rect x="84" y="178" width="14" height="58" rx="5" fill="#C4A574" stroke="#1a1520" stroke-width="3"/>
  <rect x="102" y="178" width="14" height="58" rx="5" fill="#C4A574" stroke="#1a1520" stroke-width="3"/>
  <ellipse cx="91" cy="240" rx="11" ry="6" fill="#8B4513" stroke="#1a1520" stroke-width="2.5"/>
  <ellipse cx="109" cy="240" rx="11" ry="6" fill="#8B4513" stroke="#1a1520" stroke-width="2.5"/>
  <path d="M74 98 L126 98 L120 175 L80 175 Z" fill="#2F9E62" stroke="#1a1520" stroke-width="3.5"/>
  <rect x="56" y="105" width="20" height="48" rx="9" fill="#F0C8A0" stroke="#1a1520" stroke-width="3"/>
  <rect x="124" y="105" width="20" height="48" rx="9" fill="#F0C8A0" stroke="#1a1520" stroke-width="3"/>
  

    <path d="M80 110 H120 M100 110 V165" stroke="#F0D78C" stroke-width="2.5"/>
    <rect x="86" y="148" width="28" height="14" rx="3" fill="#6B4423" stroke="#1a1520" stroke-width="2"/>

    <rect x="82" y="220" width="16" height="22" rx="3" fill="#8B4513" stroke="#1a1520" stroke-width="2.5"/>
    <rect x="102" y="220" width="16" height="22" rx="3" fill="#8B4513" stroke="#1a1520" stroke-width="2.5"/>
    <path d="M84 228 H96 M104 228 H116" stroke="#F0D78C" stroke-width="2"/>

    <g transform="translate(145,110)">
      <path d="M0 0 Q18 10 18 50 Q18 70 0 80 Q-6 40 0 0" fill="#C4A574" stroke="#1a1520" stroke-width="2.5"/>
      <line x1="4" y1="15" x2="4" y2="65" stroke="#1a1520" stroke-width="1"/>
      <line x1="9" y1="18" x2="9" y2="62" stroke="#1a1520" stroke-width="1"/>
      <line x1="14" y1="22" x2="14" y2="58" stroke="#1a1520" stroke-width="1"/>
      
    </g>
<text x="40" y="90" font-size="14" fill="#F0D78C">♪</text>
<text x="155" y="85" font-size="12" fill="#F0D78C">♫</text>
<circle cx="100" cy="140" r="40" fill="#2F9E62" opacity="0.12"/>

    <text x="35" y="110" font-size="11" fill="#F0D78C">♪</text>
    <text x="160" y="120" font-size="11" fill="#F0D78C">♪</text>
<path d="M80 55 Q100 40 122 55" fill="#E8C84A" stroke="#1a1520" stroke-width="2"/>

  <circle cx="100" cy="72" r="22" fill="#F0C8A0" stroke="#1a1520" stroke-width="3.5"/>
  <ellipse cx="93" cy="70" rx="5" ry="6" fill="#fff" stroke="#1a1520" stroke-width="2"/>
  <ellipse cx="107" cy="70" rx="5" ry="6" fill="#fff" stroke="#1a1520" stroke-width="2"/>
  <circle cx="94" cy="71" r="2.3" fill="#1a1520"/>
  <circle cx="108" cy="71" r="2.3" fill="#1a1520"/>
  
  <path d="M92 82 Q100 88 108 82" stroke="#1a1520" stroke-width="2.5" fill="none" stroke-linecap="round"/>
  


    <ellipse cx="100" cy="44" rx="24" ry="7" fill="#2F9E62" stroke="#1a1520" stroke-width="2.5"/>
    <path d="M118 42 Q142 24 136 50" fill="#E85D4C" stroke="#1a1520" stroke-width="2"/>
  
  <rect x="58" y="300" width="84" height="16" rx="6" fill="#2F9E62" opacity="0.9"/>
  <text x="100" y="312" text-anchor="middle" font-family="Verdana, sans-serif" font-size="11" font-weight="700" fill="#FFF8E7">Lv 11 ♂</text>
</svg>
