<?xml version="1.0" encoding="UTF-8"?>
<svg xmlns="http://www.w3.org/2000/svg" viewBox="0 0 200 320" fill="none">
  <title>guerreiro female lv 5</title>
  
  <defs>
    <radialGradient id="bg" cx="50%" cy="38%" r="55%">
      <stop offset="0%" stop-color="#FFF8E7" stop-opacity="0.95"/>
      <stop offset="55%" stop-color="#F5E6C8" stop-opacity="0.55"/>
      <stop offset="100%" stop-color="#D45A4A" stop-opacity="0.12"/>
    </radialGradient>
    <linearGradient id="skinG" x1="0" y1="0" x2="0" y2="1">
      <stop offset="0%" stop-color="#FFE4CC"/>
      <stop offset="55%" stop-color="#F5C9A8"/>
      <stop offset="100%" stop-color="#E8A878"/>
    </linearGradient>
    <linearGradient id="shine" x1="0" y1="0" x2="1" y2="1">
      <stop offset="0%" stop-color="#fff" stop-opacity="0.45"/>
      <stop offset="100%" stop-color="#fff" stop-opacity="0"/>
    </linearGradient>
  </defs>
  <ellipse cx="100" cy="168" rx="78" ry="118" fill="url(#bg)"/>

  
  <path d="M94 86 Q98 150 96 190" fill="none" stroke="#6B3E22" stroke-width="8" stroke-linecap="round"/>
  <path d="M104 86 Q106 145 108 185" fill="none" stroke="#6B3E22" stroke-width="5" stroke-linecap="round" opacity="0.85"/>
  

  <ellipse cx="100" cy="292" rx="42" ry="8" fill="#3D2A1F" opacity="0.12"/>
  <path d="M78 178 Q80 230 84 246 L96 246 Q94 200 92 178 Z" fill="#5A6B80" stroke="#3D2A1F" stroke-width="2.8"/>
  <path d="M108 178 Q106 200 104 246 L116 246 Q120 230 122 178 Z" fill="#5A6B80" stroke="#3D2A1F" stroke-width="2.8"/>
  <ellipse cx="88" cy="248" rx="13" ry="9" fill="#5C3A28" stroke="#3D2A1F" stroke-width="2.4"/>
  <ellipse cx="112" cy="248" rx="13" ry="9" fill="#5C3A28" stroke="#3D2A1F" stroke-width="2.4"/>
  <!-- hip flare -->
  <path d="M82 158 Q100 172 118 158 L124 182 Q100 190 76 182 Z" fill="#5A6B80" stroke="#3D2A1F" stroke-width="2.4"/>
  <!-- hourglass torso -->
  <path d="M76 98 Q100 90 124 98 L118 122 Q108 138 114 162 L86 162 Q92 138 82 122 Z" fill="#D8E0EA" stroke="#3D2A1F" stroke-width="3"/>
  <path d="M86 106 Q100 98 114 106 L112 128 Q100 124 88 128 Z" fill="url(#shine)"/>
  <path d="M78 98 Q100 90 122 98" fill="none" stroke="#8B5A30" stroke-width="3.5" stroke-linecap="round"/>
  <ellipse cx="100" cy="160" rx="15" ry="4.5" fill="#E8C84A" stroke="#3D2A1F" stroke-width="1.8"/>
  <path d="M76 106 Q56 116 54 148 Q52 162 62 166 Q70 162 72 148 Q74 124 80 114 Z" fill="url(#skinG)" stroke="#3D2A1F" stroke-width="2.6"/>
  <path d="M124 106 Q144 116 146 148 Q148 162 138 166 Q130 162 128 148 Q126 124 120 114 Z" fill="url(#skinG)" stroke="#3D2A1F" stroke-width="2.6"/>
  

    <path d="M82 118 H118 M82 138 H118 M82 158 H118" stroke="#E8C84A" stroke-width="2.2" opacity="0.85"/>
    <path d="M86 112 Q100 108 114 112" fill="none" stroke="#9AA8B8" stroke-width="2" opacity="0.5"/>

    <g transform="translate(30,112)">
      <path d="M10 2 L36 8 L34 52 L20 66 L6 52 Z" fill="#C4A04A" stroke="#3D2A1F" stroke-width="2.8"/>
      <path d="M14 10 L30 14 L28 46 L16 56 L10 46 Z" fill="#E8D090" opacity="0.45"/>
      <path d="M20 14 L24 32 L20 50 L16 32 Z" fill="#3D2A1F" opacity="0.35"/>
      <circle cx="20" cy="34" r="24" fill="#D45A4A" opacity="0"/>
    </g>

    <g transform="translate(148,92) rotate(-18)">
      <rect x="0" y="-58" width="7" height="58" rx="1.5" fill="#D8E0EA" stroke="#3D2A1F" stroke-width="2.4"/>
      <path d="M1 -54 L6 -54 L6 -20 L1 -20 Z" fill="#fff" opacity="0.3"/>
      <rect x="-7" y="-3" width="20" height="9" rx="2" fill="#D45A4A" stroke="#3D2A1F" stroke-width="2"/>
    </g>

    <circle cx="156" cy="68" r="10" fill="#F5A623" opacity="0.55"/>
    <circle cx="156" cy="68" r="5" fill="#FFE08A" opacity="0.7"/>

  <path d="M76 58 Q58 72 56 108 Q54 142 70 160 Q80 150 82 118 Q84 86 78 60 Z" fill="#6B3E22" stroke="#3D2A1F" stroke-width="2"/>
  <path d="M124 58 Q142 72 144 108 Q146 142 130 160 Q120 150 118 118 Q116 86 122 60 Z" fill="#6B3E22" stroke="#3D2A1F" stroke-width="2"/>
  

  <circle cx="100" cy="64" r="23" fill="url(#skinG)" stroke="#3D2A1F" stroke-width="3"/>
  <ellipse cx="90" cy="68" rx="7" ry="4" fill="#F4A08A" opacity="0.45"/>
  <ellipse cx="110" cy="68" rx="7" ry="4" fill="#F4A08A" opacity="0.45"/>
  <!-- eyes -->
  <ellipse cx="91" cy="62" rx="6.5" ry="7.5" fill="#fff" stroke="#3D2A1F" stroke-width="2"/>
  <ellipse cx="109" cy="62" rx="6.5" ry="7.5" fill="#fff" stroke="#3D2A1F" stroke-width="2"/>
  <circle cx="92.5" cy="63" r="3" fill="#2A4A6E"/>
  <circle cx="110.5" cy="63" r="3" fill="#2A4A6E"/>
  <circle cx="93.5" cy="61.5" r="1.2" fill="#fff"/>
  <circle cx="111.5" cy="61.5" r="1.2" fill="#fff"/>
  <path d="M84 56 Q90 51 96 56" stroke="#3D2A1F" stroke-width="1.6" fill="none" stroke-linecap="round"/>
  <path d="M104 56 Q110 51 116 56" stroke="#3D2A1F" stroke-width="1.6" fill="none" stroke-linecap="round"/>
  <ellipse cx="100" cy="68" rx="2.2" ry="1.6" fill="#E8A878" opacity="0.55"/>
  <path d="M91 75 Q100 81 109 75" stroke="#3D2A1F" stroke-width="2.4" fill="none" stroke-linecap="round"/>
  

  <path d="M78 48 Q100 28 122 48 Q116 56 100 54 Q84 56 78 48 Z" fill="#6B3E22" stroke="#3D2A1F" stroke-width="2"/>
  <path d="M82 42 Q100 34 118 42" fill="none" stroke="#6B3E22" stroke-width="6" stroke-linecap="round" opacity="0.7"/>
  <rect x="80" y="44" width="40" height="5.5" rx="2.5" fill="#E8C84A" stroke="#3D2A1F" stroke-width="1.6"/>
  <circle cx="100" cy="46.5" r="3" fill="#E85D4C" stroke="#3D2A1F" stroke-width="1.3"/>
  

    <path d="M76 40 Q100 22 124 40 L120 52 Q100 46 80 52 Z" fill="#D8E0EA" stroke="#3D2A1F" stroke-width="2.8"/>
    <path d="M82 42 Q100 32 118 42" fill="none" stroke="#fff" stroke-width="2" opacity="0.35"/>
    <rect x="95" y="18" width="10" height="16" rx="2" fill="#D45A4A" stroke="#3D2A1F" stroke-width="2"/>
  
  <rect x="54" y="298" width="92" height="18" rx="8" fill="#D45A4A" stroke="#3D2A1F" stroke-width="1.5" opacity="0.95"/>
  <text x="100" y="311" text-anchor="middle" font-family="Verdana, sans-serif" font-size="11" font-weight="700" fill="#FFFDF5">Lv 5 ♀</text>
</svg>
