<?xml version="1.0" encoding="UTF-8"?>
<svg xmlns="http://www.w3.org/2000/svg" viewBox="0 0 200 320" fill="none">
  <title>male level 10</title>
  

    <path d="M100 70 Q37 130 55 250 Q100 210 145 250 Q163 130 100 70"
      fill="#4A3A5C" stroke="#1a1520" stroke-width="3.5" opacity="0.92"/>

  <ellipse cx="100" cy="298" rx="42" ry="7" fill="#000" opacity="0.18"/>
  <rect x="84" y="178" width="14" height="58" rx="5" fill="#3D2B4A" stroke="#1a1520" stroke-width="3"/>
  <rect x="102" y="178" width="14" height="58" rx="5" fill="#3D2B4A" stroke="#1a1520" stroke-width="3"/>
  <ellipse cx="91" cy="240" rx="11" ry="6" fill="#1A1520" stroke="#1a1520" stroke-width="2.5"/>
  <ellipse cx="109" cy="240" rx="11" ry="6" fill="#1A1520" stroke="#1a1520" stroke-width="2.5"/>
  <path d="M74 98 L126 98 L120 175 L80 175 Z" fill="#5C3A6E" stroke="#1a1520" stroke-width="3.5"/>
  <rect x="56" y="105" width="20" height="48" rx="9" fill="#F0C8A0" stroke="#1a1520" stroke-width="3"/>
  <rect x="124" y="105" width="20" height="48" rx="9" fill="#F0C8A0" stroke="#1a1520" stroke-width="3"/>
  

    <ellipse cx="91" cy="242" rx="13" ry="7" fill="#1A1520" stroke="#E8A0D0" stroke-width="2"/>
    <ellipse cx="109" cy="242" rx="13" ry="7" fill="#1A1520" stroke="#E8A0D0" stroke-width="2"/>

    <g transform="translate(150,120)">
      <rect x="0" y="10" width="28" height="8" rx="2" fill="#5C3A1E" stroke="#1a1520" stroke-width="2"/>
      <path d="M28 8 L48 14 L28 20 Z" fill="#C0C8D4" stroke="#1a1520" stroke-width="2"/>
    </g>
<circle cx="155" cy="120" r="10" fill="#E8A0D0" opacity="0.4"/>
<circle cx="100" cy="150" r="50" fill="#7C4DB2" opacity="0.08"/>

    <circle cx="45" cy="160" r="8" fill="none" stroke="#E8A0D0" stroke-width="2"/>
    <circle cx="45" cy="160" r="3" fill="#E8A0D0"/>
<path d="M82 58 Q100 42 118 58" fill="#C23B2E" stroke="#1a1520" stroke-width="2"/>

  <circle cx="100" cy="72" r="22" fill="#F0C8A0" stroke="#1a1520" stroke-width="3.5"/>
  <ellipse cx="93" cy="70" rx="5" ry="6" fill="#fff" stroke="#1a1520" stroke-width="2"/>
  <ellipse cx="107" cy="70" rx="5" ry="6" fill="#fff" stroke="#1a1520" stroke-width="2"/>
  <circle cx="94" cy="71" r="2.3" fill="#1a1520"/>
  <circle cx="108" cy="71" r="2.3" fill="#1a1520"/>
  
  <path d="M92 82 Q100 88 108 82" stroke="#1a1520" stroke-width="2.5" fill="none" stroke-linecap="round"/>
  


    <path d="M72 40 Q100 18 128 40 L124 54 Q100 48 76 54 Z" fill="#4A3A5C" stroke="#1a1520" stroke-width="3"/>
    <path d="M76 78 Q70 110 78 150" fill="none" stroke="#4A3A5C" stroke-width="10" stroke-linecap="round" opacity="0.7"/>
    <path d="M124 78 Q130 110 122 150" fill="none" stroke="#4A3A5C" stroke-width="10" stroke-linecap="round" opacity="0.7"/>

    <rect x="86" y="66" width="28" height="10" rx="3" fill="#1a1520" opacity="0.65"/>
    <circle cx="93" cy="71" r="1.8" fill="#E8A0D0"/><circle cx="107" cy="71" r="1.8" fill="#E8A0D0"/>
  
  <rect x="58" y="300" width="84" height="16" rx="6" fill="#7C4DB2" opacity="0.9"/>
  <text x="100" y="312" text-anchor="middle" font-family="Verdana, sans-serif" font-size="11" font-weight="700" fill="#FFF8E7">Lv 10 ♂</text>
</svg>
